<svg width="512" height="512" version="1.1" viewBox="0 0 512 512" xmlns="http://www.w3.org/2000/svg">
    <rect width="512" height="512" fill="#f9f9f9" style="paint-order:markers fill stroke"/>
    <path d="m256 64a192 192 0 00-192 192 192 192 0 0012.5 68.2c2.81-7.27 6.01-14.5 10-21.1 2.07-3.44 4.3-6.81 5.88-10.5 1.58-3.7 2.15-7.83 1.02-11.7-.636-2.19-1.93-4.12-3.3-5.94-1.37-1.82-2.82-3.6-4.08-5.52-3.19-4.89-4.56-10.8-3.78-16.6.78-5.83 3.85-11.2 8.59-14.6 2.6-1.92 10.1-3.66 12.7-4.23-.0852-.00018-.143-.00346-.158-.00976v-.00196h-.00195v-.00195-.00195h.00195v-.00196c.0107-.00711.0509-.0163.125-.0293 1.3-.227 1.08-.188.0332.0469.404.00089 1.46-.0536 1.91-.0312 1.72.0512 3.44.232 5.1.664 6.74 1.75 12.7 5.74 17 11.2 5.36 6.63 8.58 15 9.36 23.5s-.778 17.2-4.08 25.1c-5.88 14.2-17 25.6-23.2 39.7-4.98 11.5-6.46 24.2-5.76 36.7.0498.883.175 1.76.244 2.67a192 192 0 0053.8 47.6c-1.21-10.2-1.82-20.6-1.82-30.9.00356-8.34.486-16.6 1.27-24.8-5.11-3.34-9.54-7.65-12.8-12.8-5.88-9.14-6.91-20.8-4.5-31.4 2.39-10.6 8.04-20.3 14.8-28.8 11.2-14.2 25.6-25.5 41.9-33.1-.48-.66-.98-1.31-1.32-1.86-6.01-9.75-9.58-20.8-10.4-32.2-.856-11.5.976-23 1.68-34.4.496-8.04.572-16.1 1.02-24.1.516-9.36 1.63-18.6 4.26-27.5.97-3.3 2.12-6.48 3.96-9.3 2.17-3.32 5.19-6.02 8.82-7.62 3.59-1.58 7.61-2.07 11.5-1.32 3.32.645 6.29 2.36 8.94 4.38 2.69 2.05 4.99 4.49 7.14 7.02 6.18 7.26 11.4 15.3 15.4 23.9 5.35-.828 10.8-.828 16.1 0 4.06-8.63 9.26-16.7 15.4-23.9 2.17-2.57 4.49-4.97 7.14-7.02 2.66-2.05 5.66-3.63 8.94-4.38.971-.223 1.96-.324 2.95-.367 2.96-.129 5.92.439 8.63 1.69 3.59 1.65 6.61 4.31 8.77 7.62 1.84 2.83 3 6.06 3.95 9.3 2.64 8.94 3.77 18.2 4.32 27.5.471 7.98.482 16.1 1.02 24.1.778 11.5 2.59 23 1.68 34.4-.908 11.4-4.44 22.5-10.4 32.3-.479.78-.96 1.44-1.5 2.16 3.6 4.14 8.81 7.64 13.3 9.12 5 1.64 10.3 1.84 15.5.664 2.84-.65 5.55-1.77 7.98-3.36 2.42-1.57 4.5-3.65 5.88-6.18 1.69-3.11 2.48-6.61 2.82-10.1.865-9.01-.0139-18.1-.781-27.2-.493-5.82-.847-11.8.359-17.5.834-3.95 2.68-7.64 5.59-10.4 1.91-1.85 4.33-3.1 6.9-3.78 2.56-.676 5.24-.814 7.86-.422 5.68.848 10.8 3.99 14 8.77 1.79 2.69 2.91 5.76 3.54 8.94.63 3.19.849 6.42 1.02 9.66.606 11.2.562 22.5.242 33.8-.28 9.9-.822 20-4.74 29-5.02 11.6-15.3 20.2-26.2 26.4-7.41 4.18-15.3 7.41-23.5 9.66 7.23 23.7 10.9 48.4 10.8 73.2-.0293 10.5-.679 21.4-1.96 31.8a192 192 0 0094.7-166 192 192 0 00-192-192zm97.3 358c-7.37 4.33-15 8.15-22.8 11.4a192 192 0 0022.8-11.4zm-151-121v21.9c5.79.0835 11.4 1.99 16.1 5.41 3.57 2.61 6.48 6.04 8.28 10.1 1.79 4 2.42 8.51 1.62 12.9-.702 3.86-2.32 7.5-4.86 10.5-2.54 3-5.77 5.31-9.41 6.78-3.69 1.49-7.67 2.1-11.6 1.8v55.4l115-62.4-115-62.3zm-125 23.9a192 192 0 0010.4 22.3c-3.87-7.22-7.45-14.6-10.4-22.3zm13.4 27.7a192 192 0 0013.5 20.6c-4.99-6.54-9.38-13.5-13.5-20.6zm76.6 73.5a192 192 0 0014.4 7.27c-4.93-2.09-9.61-4.77-14.4-7.27zm63.8 20.8a192 192 0 0025.7 1.72c-8.61.00012-17.2-.582-25.7-1.72zm25.7 1.72a192 192 0 0025.5-1.7c-8.41 1.13-16.9 1.7-25.5 1.7z" fill="#1a1a1a" stroke-width="4"/>
</svg>
